<svg version="1.1" xmlns="http://www.w3.org/2000/svg" xmlns:xlink="http://www.w3.org/1999/xlink" width="700" height="400"><defs/><g><rect fill="rgb(255,255,255)" stroke="none" x="0" y="0" width="700" height="400" fill-opacity="1"/><g transform="scale(1,1)"><g><path fill="none" stroke="none"/><g><path fill="none" stroke="none" d=""/><g transform="translate(39.01321373792034,28)"/></g><g transform="translate(39.01321373792034,28)"><text fill="#666666" stroke="#000000" font-family="&quot;Open Sans&quot;" font-size="12px" font-style="normal" font-weight="normal" text-decoration="normal" x="0" y="0" text-anchor="middle" dominant-baseline="text-after-edge" stroke-miterlimit="10" stroke-dasharray="">Run Time (s)</text></g></g><g><path fill="rgb(255,255,255)" stroke="rgb(0,0,0)" paint-order="stroke fill markers" d=" M 42 360 L 42 375 L 658 375 L 658 360 L 42 360 Z" stroke-opacity="0" stroke-miterlimit="10" stroke-dasharray="" fill-opacity="0"/></g><g><path fill="#000000" stroke="#ff0000" paint-order="stroke fill markers" d=" M 44.45832443237305 367.5 L 62.45832443237305 367.5" stroke-miterlimit="10" stroke-width="2" stroke-dasharray=""/><path fill="#ff0000" stroke="#ffffff" paint-order="stroke fill markers" d=" M 50.45832443237305 364.5 L 56.45832443237305 364.5 L 56.45832443237305 370.5 L 50.45832443237305 370.5 L 50.45832443237305 364.5 Z" stroke-miterlimit="10" stroke-dasharray=""/></g><g fill="#000000"><path fill="" stroke="none" d=""/><g transform="translate(65.45832443237305,375)"><text fill="" stroke="none" font-family="&quot;Open Sans&quot;" font-size="15px" font-style="normal" font-weight="normal" text-decoration="normal" x="0" y="0" text-anchor="start" dominant-baseline="text-after-edge">Python Sort()</text></g></g><g><path fill="#000000" stroke="#000000" paint-order="stroke fill markers" d=" M 168.47499465942383 367.5 L 186.47499465942383 367.5" stroke-miterlimit="10" stroke-width="2" stroke-dasharray=""/><path fill="#000000" stroke="#ffffff" paint-order="stroke fill markers" d=" M 174.47499465942383 364.5 L 180.47499465942383 364.5 L 180.47499465942383 370.5 L 174.47499465942383 370.5 L 174.47499465942383 364.5 Z" stroke-miterlimit="10" stroke-dasharray=""/></g><g fill="#000000"><path fill="" stroke="none" d=""/><g transform="translate(189.47499465942383,375)"><text fill="" stroke="none" font-family="&quot;Open Sans&quot;" font-size="15px" font-style="normal" font-weight="normal" text-decoration="normal" x="0" y="0" text-anchor="start" dominant-baseline="text-after-edge">Tree Sort</text></g></g><g><path fill="#000000" stroke="#9b59b6" paint-order="stroke fill markers" d=" M 292.4916648864746 367.5 L 310.4916648864746 367.5" stroke-miterlimit="10" stroke-width="2" stroke-dasharray=""/><path fill="#c500ff" stroke="#ffffff" paint-order="stroke fill markers" d=" M 298.4916648864746 364.5 L 304.4916648864746 364.5 L 304.4916648864746 370.5 L 298.4916648864746 370.5 L 298.4916648864746 364.5 Z" stroke-miterlimit="10" stroke-dasharray=""/></g><g fill="#000000"><path fill="" stroke="none" d=""/><g transform="translate(313.4916648864746,375)"><text fill="" stroke="none" font-family="&quot;Open Sans&quot;" font-size="15px" font-style="normal" font-weight="normal" text-decoration="normal" x="0" y="0" text-anchor="start" dominant-baseline="text-after-edge">Insertion Sort</text></g></g><g><path fill="#000000" stroke="#2ecc70" paint-order="stroke fill markers" d=" M 416.5083351135254 367.5 L 434.5083351135254 367.5" stroke-miterlimit="10" stroke-width="2" stroke-dasharray=""/><path fill="#2ecc71" stroke="#ffffff" paint-order="stroke fill markers" d=" M 422.5083351135254 364.5 L 428.5083351135254 364.5 L 428.5083351135254 370.5 L 422.5083351135254 370.5 L 422.5083351135254 364.5 Z" stroke-miterlimit="10" stroke-dasharray=""/></g><g fill="#000000"><path fill="" stroke="none" d=""/><g transform="translate(437.5083351135254,375)"><text fill="" stroke="none" font-family="&quot;Open Sans&quot;" font-size="15px" font-style="normal" font-weight="normal" text-decoration="normal" x="0" y="0" text-anchor="start" dominant-baseline="text-after-edge">Selection Sort</text></g></g><g><path fill="#000000" stroke="#3498db" paint-order="stroke fill markers" d=" M 540.5250053405762 367.5 L 558.5250053405762 367.5" stroke-miterlimit="10" stroke-width="2" stroke-dasharray=""/><path fill="#3498db" stroke="#ffffff" paint-order="stroke fill markers" d=" M 546.5250053405762 364.5 L 552.5250053405762 364.5 L 552.5250053405762 370.5 L 546.5250053405762 370.5 L 546.5250053405762 364.5 Z" stroke-miterlimit="10" stroke-dasharray=""/></g><g fill="#000000"><path fill="" stroke="none" d=""/><g transform="translate(561.5250053405762,375)"><text fill="" stroke="none" font-family="&quot;Open Sans&quot;" font-size="15px" font-style="normal" font-weight="normal" text-decoration="normal" x="0" y="0" text-anchor="start" dominant-baseline="text-after-edge">Bubble Sort</text></g></g><g><g fill="#ffffff" stroke="#000000" stroke-miterlimit="10" stroke-dasharray=""><path fill="" stroke="" d=""/><g transform="translate(350.00000000000006,388)"><g><rect fill="" stroke="" x="-72.9749984741211" y="1" width="145.9499969482422" height="-14"/></g></g></g><g transform="translate(350.00000000000006,388)"><text fill="#1c1c1c" stroke="#000000" font-family="&quot;Open Sans&quot;" font-size="12px" font-style="normal" font-weight="normal" text-decoration="normal" x="0" y="0" text-anchor="middle" dominant-baseline="text-after-edge" stroke-miterlimit="10" stroke-dasharray="">Made with Livegap Charts</text></g></g><g><g transform="translate(35.01321373792034,287) rotate(-45,0,0)"><text fill="#000000" stroke="none" font-family="&quot;Open Sans&quot;" font-size="12px" font-style="normal" font-weight="normal" text-decoration="normal" x="0" y="0" text-anchor="end" dominant-baseline="text-before-edge">1.000</text></g><g transform="translate(96.01321373792034,287) rotate(-45,0,0)"><text fill="#000000" stroke="none" font-family="&quot;Open Sans&quot;" font-size="12px" font-style="normal" font-weight="normal" text-decoration="normal" x="0" y="0" text-anchor="end" dominant-baseline="text-before-edge">10.000</text></g><g transform="translate(157.01321373792035,287) rotate(-45,0,0)"><text fill="#000000" stroke="none" font-family="&quot;Open Sans&quot;" font-size="12px" font-style="normal" font-weight="normal" text-decoration="normal" x="0" y="0" text-anchor="end" dominant-baseline="text-before-edge">50.000</text></g><g transform="translate(218.01321373792035,287) rotate(-45,0,0)"><text fill="#000000" stroke="none" font-family="&quot;Open Sans&quot;" font-size="12px" font-style="normal" font-weight="normal" text-decoration="normal" x="0" y="0" text-anchor="end" dominant-baseline="text-before-edge">100.000</text></g><g transform="translate(279.01321373792035,287) rotate(-45,0,0)"><text fill="#000000" stroke="none" font-family="&quot;Open Sans&quot;" font-size="12px" font-style="normal" font-weight="normal" text-decoration="normal" x="0" y="0" text-anchor="end" dominant-baseline="text-before-edge">200.000</text></g><g transform="translate(340.01321373792035,287) rotate(-45,0,0)"><text fill="#000000" stroke="none" font-family="&quot;Open Sans&quot;" font-size="12px" font-style="normal" font-weight="normal" text-decoration="normal" x="0" y="0" text-anchor="end" dominant-baseline="text-before-edge">500.000</text></g><g transform="translate(401.01321373792035,287) rotate(-45,0,0)"><text fill="#000000" stroke="none" font-family="&quot;Open Sans&quot;" font-size="12px" font-style="normal" font-weight="normal" text-decoration="normal" x="0" y="0" text-anchor="end" dominant-baseline="text-before-edge">1.000.000</text></g><g transform="translate(462.01321373792035,287) rotate(-45,0,0)"><text fill="#000000" stroke="none" font-family="&quot;Open Sans&quot;" font-size="12px" font-style="normal" font-weight="normal" text-decoration="normal" x="0" y="0" text-anchor="end" dominant-baseline="text-before-edge">2.000.000</text></g><g transform="translate(523.0132137379203,287) rotate(-45,0,0)"><text fill="#000000" stroke="none" font-family="&quot;Open Sans&quot;" font-size="12px" font-style="normal" font-weight="normal" text-decoration="normal" x="0" y="0" text-anchor="end" dominant-baseline="text-before-edge">5.000.000</text></g><g transform="translate(584.0132137379203,287) rotate(-45,0,0)"><text fill="#000000" stroke="none" font-family="&quot;Open Sans&quot;" font-size="12px" font-style="normal" font-weight="normal" text-decoration="normal" x="0" y="0" text-anchor="end" dominant-baseline="text-before-edge">10.000.000</text></g><g transform="translate(645.0132137379203,287) rotate(-45,0,0)"><text fill="#000000" stroke="none" font-family="&quot;Open Sans&quot;" font-size="12px" font-style="normal" font-weight="normal" text-decoration="normal" x="0" y="0" text-anchor="end" dominant-baseline="text-before-edge">20.000.000</text></g><text fill="#000000" stroke="none" font-family="&quot;Open Sans&quot;" font-size="12px" font-style="normal" font-weight="normal" text-decoration="normal" x="34.01321373792034" y="251" text-anchor="end" dominant-baseline="central">2</text><text fill="#000000" stroke="none" font-family="&quot;Open Sans&quot;" font-size="12px" font-style="normal" font-weight="normal" text-decoration="normal" x="34.01321373792034" y="225" text-anchor="end" dominant-baseline="central">4</text><text fill="#000000" stroke="none" font-family="&quot;Open Sans&quot;" font-size="12px" font-style="normal" font-weight="normal" text-decoration="normal" x="34.01321373792034" y="199" text-anchor="end" dominant-baseline="central">6</text><text fill="#000000" stroke="none" font-family="&quot;Open Sans&quot;" font-size="12px" font-style="normal" font-weight="normal" text-decoration="normal" x="34.01321373792034" y="173" text-anchor="end" dominant-baseline="central">8</text><text fill="#000000" stroke="none" font-family="&quot;Open Sans&quot;" font-size="12px" font-style="normal" font-weight="normal" text-decoration="normal" x="34.01321373792034" y="147" text-anchor="end" dominant-baseline="central">10</text><text fill="#000000" stroke="none" font-family="&quot;Open Sans&quot;" font-size="12px" font-style="normal" font-weight="normal" text-decoration="normal" x="34.01321373792034" y="121" text-anchor="end" dominant-baseline="central">12</text><text fill="#000000" stroke="none" font-family="&quot;Open Sans&quot;" font-size="12px" font-style="normal" font-weight="normal" text-decoration="normal" x="34.01321373792034" y="95" text-anchor="end" dominant-baseline="central">14</text><text fill="#000000" stroke="none" font-family="&quot;Open Sans&quot;" font-size="12px" font-style="normal" font-weight="normal" text-decoration="normal" x="34.01321373792034" y="69" text-anchor="end" dominant-baseline="central">16</text><text fill="#000000" stroke="#000000" font-family="&quot;Open Sans&quot;" font-size="12px" font-style="normal" font-weight="normal" text-decoration="normal" x="34.01321373792034" y="43" text-anchor="end" dominant-baseline="central" stroke-miterlimit="10" stroke-dasharray="">18</text><path fill="none" stroke="rgb(0,0,0)" paint-order="fill stroke markers" d=" M 39.01321373792034 277 L 659.0132137379203 277" stroke-opacity="0.6" stroke-miterlimit="10" stroke-dasharray=""/><path fill="none" stroke="rgb(0,0,0)" paint-order="fill stroke markers" d=" M 44.01321373792034 282 L 44.01321373792034 277" stroke-opacity="0.1" stroke-miterlimit="10" stroke-dasharray=""/><path fill="none" stroke="rgb(0,0,0)" paint-order="fill stroke markers" d=" M 105.01321373792034 282 L 105.01321373792034 38" stroke-opacity="0.1" stroke-miterlimit="10" stroke-dasharray=""/><path fill="none" stroke="rgb(0,0,0)" paint-order="fill stroke markers" d=" M 166.01321373792035 282 L 166.01321373792035 38" stroke-opacity="0.1" stroke-miterlimit="10" stroke-dasharray=""/><path fill="none" stroke="rgb(0,0,0)" paint-order="fill stroke markers" d=" M 227.01321373792035 282 L 227.01321373792035 38" stroke-opacity="0.1" stroke-miterlimit="10" stroke-dasharray=""/><path fill="none" stroke="rgb(0,0,0)" paint-order="fill stroke markers" d=" M 288.01321373792035 282 L 288.01321373792035 38" stroke-opacity="0.1" stroke-miterlimit="10" stroke-dasharray=""/><path fill="none" stroke="rgb(0,0,0)" paint-order="fill stroke markers" d=" M 349.01321373792035 282 L 349.01321373792035 38" stroke-opacity="0.1" stroke-miterlimit="10" stroke-dasharray=""/><path fill="none" stroke="rgb(0,0,0)" paint-order="fill stroke markers" d=" M 410.01321373792035 282 L 410.01321373792035 38" stroke-opacity="0.1" stroke-miterlimit="10" stroke-dasharray=""/><path fill="none" stroke="rgb(0,0,0)" paint-order="fill stroke markers" d=" M 471.01321373792035 282 L 471.01321373792035 38" stroke-opacity="0.1" stroke-miterlimit="10" stroke-dasharray=""/><path fill="none" stroke="rgb(0,0,0)" paint-order="fill stroke markers" d=" M 532.0132137379203 282 L 532.0132137379203 38" stroke-opacity="0.1" stroke-miterlimit="10" stroke-dasharray=""/><path fill="none" stroke="rgb(0,0,0)" paint-order="fill stroke markers" d=" M 593.0132137379203 282 L 593.0132137379203 38" stroke-opacity="0.1" stroke-miterlimit="10" stroke-dasharray=""/><path fill="none" stroke="rgb(0,0,0)" paint-order="fill stroke markers" d=" M 654.0132137379203 282 L 654.0132137379203 38" stroke-opacity="0.1" stroke-miterlimit="10" stroke-dasharray=""/><path fill="none" stroke="rgb(0,0,0)" paint-order="fill stroke markers" d=" M 44.01321373792034 282 L 44.01321373792034 38" stroke-opacity="0.6" stroke-miterlimit="10" stroke-dasharray=""/><path fill="none" stroke="rgb(0,0,0)" paint-order="fill stroke markers" d=" M 39.01321373792034 251 L 659.0132137379203 251" stroke-opacity="0.1" stroke-miterlimit="10" stroke-dasharray=""/><path fill="none" stroke="rgb(0,0,0)" paint-order="fill stroke markers" d=" M 39.01321373792034 225 L 659.0132137379203 225" stroke-opacity="0.1" stroke-miterlimit="10" stroke-dasharray=""/><path fill="none" stroke="rgb(0,0,0)" paint-order="fill stroke markers" d=" M 39.01321373792034 199 L 659.0132137379203 199" stroke-opacity="0.1" stroke-miterlimit="10" stroke-dasharray=""/><path fill="none" stroke="rgb(0,0,0)" paint-order="fill stroke markers" d=" M 39.01321373792034 173 L 659.0132137379203 173" stroke-opacity="0.1" stroke-miterlimit="10" stroke-dasharray=""/><path fill="none" stroke="rgb(0,0,0)" paint-order="fill stroke markers" d=" M 39.01321373792034 147 L 659.0132137379203 147" stroke-opacity="0.1" stroke-miterlimit="10" stroke-dasharray=""/><path fill="none" stroke="rgb(0,0,0)" paint-order="fill stroke markers" d=" M 39.01321373792034 121 L 659.0132137379203 121" stroke-opacity="0.1" stroke-miterlimit="10" stroke-dasharray=""/><path fill="none" stroke="rgb(0,0,0)" paint-order="fill stroke markers" d=" M 39.01321373792034 95 L 659.0132137379203 95" stroke-opacity="0.1" stroke-miterlimit="10" stroke-dasharray=""/><path fill="none" stroke="rgb(0,0,0)" paint-order="fill stroke markers" d=" M 39.01321373792034 69 L 659.0132137379203 69" stroke-opacity="0.1" stroke-miterlimit="10" stroke-dasharray=""/><path fill="none" stroke="rgb(0,0,0)" paint-order="fill stroke markers" d=" M 39.01321373792034 43 L 659.0132137379203 43" stroke-opacity="0.1" stroke-miterlimit="10" stroke-dasharray=""/><g><path fill="none" stroke="rgb(0,0,0)" paint-order="fill stroke markers" d="" stroke-opacity="0.1" stroke-miterlimit="10" stroke-dasharray=""/><path fill="none" stroke="#3498db" paint-order="fill stroke markers" d=" M 44.01321373792034 276.987" stroke-miterlimit="10" stroke-width="2" stroke-dasharray=""/><path fill="none" stroke="#3498db" paint-order="fill stroke markers" d=" M 44.01321373792034 276.987 Q 92.63945848087158 277 105.01321373792034 270.812 C 141.4394584808716 218.24892883592133 132.72822263596083 163.0944458436033 166.01321373792035 100.941 C 181.52822263596084 71.96964584360327 202.61321373792035 66.1764 227.01321373792035 43" stroke-miterlimit="10" stroke-width="2" stroke-dasharray=""/></g><path fill="#3498db" stroke="#ffffff" paint-order="stroke fill markers" d=" M 41.01321373792034 273.987 L 47.01321373792034 273.987 L 47.01321373792034 279.987 L 41.01321373792034 279.987 L 41.01321373792034 273.987 Z" stroke-miterlimit="10" stroke-dasharray=""/><path fill="#3498db" stroke="#ffffff" paint-order="stroke fill markers" d=" M 102.01321373792034 267.812 L 108.01321373792034 267.812 L 108.01321373792034 273.812 L 102.01321373792034 273.812 L 102.01321373792034 267.812 Z" stroke-miterlimit="10" stroke-dasharray=""/><path fill="#3498db" stroke="#ffffff" paint-order="stroke fill markers" d=" M 163.01321373792035 97.941 L 169.01321373792035 97.941 L 169.01321373792035 103.941 L 163.01321373792035 103.941 L 163.01321373792035 97.941 Z" stroke-miterlimit="10" stroke-dasharray=""/><path fill="#3498db" stroke="#ffffff" paint-order="stroke fill markers" d=" M 224.01321373792035 40 L 230.01321373792035 40 L 230.01321373792035 46 L 224.01321373792035 46 L 224.01321373792035 40 Z" stroke-miterlimit="10" stroke-dasharray=""/><g><path fill="none" stroke="#ffffff" paint-order="fill stroke markers" d="" stroke-miterlimit="10" stroke-dasharray=""/><path fill="none" stroke="#2ecc70" paint-order="fill stroke markers" d=" M 44.01321373792034 276.948" stroke-miterlimit="10" stroke-width="2" stroke-dasharray=""/><path fill="none" stroke="#2ecc70" paint-order="fill stroke markers" d=" M 44.01321373792034 276.948 Q 82.6514549356291 277 105.01321373792034 275.388 C 131.4514549356291 266.70260435276253 149.99878558769473 259.5819221543733 166.01321373792035 236.869 C 198.79878558769474 190.36992215437328 196.05417129554803 151.55470983000228 227.01321373792035 102.358 C 244.85417129554804 74.00710983000229 263.6132137379204 66.7432 288.01321373792035 43" stroke-miterlimit="10" stroke-width="2" stroke-dasharray=""/></g><path fill="#2ecc71" stroke="#ffffff" paint-order="stroke fill markers" d=" M 41.01321373792034 273.948 L 47.01321373792034 273.948 L 47.01321373792034 279.948 L 41.01321373792034 279.948 L 41.01321373792034 273.948 Z" stroke-miterlimit="10" stroke-dasharray=""/><path fill="#2ecc71" stroke="#ffffff" paint-order="stroke fill markers" d=" M 102.01321373792034 272.388 L 108.01321373792034 272.388 L 108.01321373792034 278.388 L 102.01321373792034 278.388 L 102.01321373792034 272.388 Z" stroke-miterlimit="10" stroke-dasharray=""/><path fill="#2ecc71" stroke="#ffffff" paint-order="stroke fill markers" d=" M 163.01321373792035 233.869 L 169.01321373792035 233.869 L 169.01321373792035 239.869 L 163.01321373792035 239.869 L 163.01321373792035 233.869 Z" stroke-miterlimit="10" stroke-dasharray=""/><path fill="#2ecc71" stroke="#ffffff" paint-order="stroke fill markers" d=" M 224.01321373792035 99.358 L 230.01321373792035 99.358 L 230.01321373792035 105.358 L 224.01321373792035 105.358 L 224.01321373792035 99.358 Z" stroke-miterlimit="10" stroke-dasharray=""/><path fill="#2ecc71" stroke="#ffffff" paint-order="stroke fill markers" d=" M 285.01321373792035 40 L 291.01321373792035 40 L 291.01321373792035 46 L 285.01321373792035 46 L 285.01321373792035 40 Z" stroke-miterlimit="10" stroke-dasharray=""/><g><path fill="none" stroke="#ffffff" paint-order="fill stroke markers" d="" stroke-miterlimit="10" stroke-dasharray=""/><path fill="none" stroke="#9b59b6" paint-order="fill stroke markers" d=" M 44.01321373792034 276.948" stroke-miterlimit="10" stroke-width="2" stroke-dasharray=""/><path fill="none" stroke="#9b59b6" paint-order="fill stroke markers" d=" M 44.01321373792034 276.948 Q 83.38134019410982 277 105.01321373792034 275.076 C 132.18134019410985 264.3241026101825 149.80360068262385 253.6351816578341 166.01321373792035 228.666 C 198.60360068262386 178.4639816578341 194.2313072826539 137.0372249501927 227.01321373792035 87.14800000000002 C 243.03130728265387 62.77082495019268 263.6132137379204 60.65920000000001 288.01321373792035 43" stroke-miterlimit="10" stroke-width="2" stroke-dasharray=""/></g><path fill="#c500ff" stroke="#ffffff" paint-order="stroke fill markers" d=" M 41.01321373792034 273.948 L 47.01321373792034 273.948 L 47.01321373792034 279.948 L 41.01321373792034 279.948 L 41.01321373792034 273.948 Z" stroke-miterlimit="10" stroke-dasharray=""/><path fill="#c500ff" stroke="#ffffff" paint-order="stroke fill markers" d=" M 102.01321373792034 272.076 L 108.01321373792034 272.076 L 108.01321373792034 278.076 L 102.01321373792034 278.076 L 102.01321373792034 272.076 Z" stroke-miterlimit="10" stroke-dasharray=""/><path fill="#c500ff" stroke="#ffffff" paint-order="stroke fill markers" d=" M 163.01321373792035 225.666 L 169.01321373792035 225.666 L 169.01321373792035 231.666 L 163.01321373792035 231.666 L 163.01321373792035 225.666 Z" stroke-miterlimit="10" stroke-dasharray=""/><path fill="#c500ff" stroke="#ffffff" paint-order="stroke fill markers" d=" M 224.01321373792035 84.14800000000002 L 230.01321373792035 84.14800000000002 L 230.01321373792035 90.14800000000002 L 224.01321373792035 90.14800000000002 L 224.01321373792035 84.14800000000002 Z" stroke-miterlimit="10" stroke-dasharray=""/><path fill="#c500ff" stroke="#ffffff" paint-order="stroke fill markers" d=" M 285.01321373792035 40 L 291.01321373792035 40 L 291.01321373792035 46 L 285.01321373792035 46 L 285.01321373792035 40 Z" stroke-miterlimit="10" stroke-dasharray=""/><g><path fill="none" stroke="#ffffff" paint-order="fill stroke markers" d="" stroke-miterlimit="10" stroke-dasharray=""/><path fill="none" stroke="#000000" paint-order="fill stroke markers" d=" M 44.01321373792034 276.974" stroke-miterlimit="10" stroke-width="2" stroke-dasharray=""/><path fill="none" stroke="#000000" paint-order="fill stroke markers" d=" M 44.01321373792034 276.974 Q 80.61323451654988 276.94799996678825 105.01321373792034 276.909 C 129.4132345165499 276.86999996678827 141.61321373792035 276.831 166.01321373792035 276.779 C 190.41321373792036 276.727 202.61333259032102 276.7347995820682 227.01321373792035 276.649 C 251.41333259032103 276.5631995820682 263.61403151263266 276.5631928545259 288.01321373792035 276.35 C 312.4140315126327 276.1367928545259 324.6150749301434 275.9989682681982 349.01321373792035 275.583 C 373.4150749301434 275.16696826819816 385.62091392213404 275.03935712861596 410.01321373792035 274.27 C 434.42091392213405 273.5001571286159 446.6757292127708 273.5762703456322 471.01321373792035 271.735 C 495.4757292127708 269.8842703456322 507.54352398139355 266.6696412235392 532.0132137379203 265.04 C 556.3435239813936 263.4196412235392 570.218835828775 270.14376553674435 593.0132137379203 263.61 C 619.018835828775 256.15576553674435 629.6132137379203 243.486 654.0132137379203 230.07" stroke-miterlimit="10" stroke-width="2" stroke-dasharray=""/></g><path fill="#000000" stroke="#ffffff" paint-order="stroke fill markers" d=" M 41.01321373792034 273.974 L 47.01321373792034 273.974 L 47.01321373792034 279.974 L 41.01321373792034 279.974 L 41.01321373792034 273.974 Z" stroke-miterlimit="10" stroke-dasharray=""/><path fill="#000000" stroke="#ffffff" paint-order="stroke fill markers" d=" M 102.01321373792034 273.909 L 108.01321373792034 273.909 L 108.01321373792034 279.909 L 102.01321373792034 279.909 L 102.01321373792034 273.909 Z" stroke-miterlimit="10" stroke-dasharray=""/><path fill="#000000" stroke="#ffffff" paint-order="stroke fill markers" d=" M 163.01321373792035 273.779 L 169.01321373792035 273.779 L 169.01321373792035 279.779 L 163.01321373792035 279.779 L 163.01321373792035 273.779 Z" stroke-miterlimit="10" stroke-dasharray=""/><path fill="#000000" stroke="#ffffff" paint-order="stroke fill markers" d=" M 224.01321373792035 273.649 L 230.01321373792035 273.649 L 230.01321373792035 279.649 L 224.01321373792035 279.649 L 224.01321373792035 273.649 Z" stroke-miterlimit="10" stroke-dasharray=""/><path fill="#000000" stroke="#ffffff" paint-order="stroke fill markers" d=" M 285.01321373792035 273.35 L 291.01321373792035 273.35 L 291.01321373792035 279.35 L 285.01321373792035 279.35 L 285.01321373792035 273.35 Z" stroke-miterlimit="10" stroke-dasharray=""/><path fill="#000000" stroke="#ffffff" paint-order="stroke fill markers" d=" M 346.01321373792035 272.583 L 352.01321373792035 272.583 L 352.01321373792035 278.583 L 346.01321373792035 278.583 L 346.01321373792035 272.583 Z" stroke-miterlimit="10" stroke-dasharray=""/><path fill="#000000" stroke="#ffffff" paint-order="stroke fill markers" d=" M 407.01321373792035 271.27 L 413.01321373792035 271.27 L 413.01321373792035 277.27 L 407.01321373792035 277.27 L 407.01321373792035 271.27 Z" stroke-miterlimit="10" stroke-dasharray=""/><path fill="#000000" stroke="#ffffff" paint-order="stroke fill markers" d=" M 468.01321373792035 268.735 L 474.01321373792035 268.735 L 474.01321373792035 274.735 L 468.01321373792035 274.735 L 468.01321373792035 268.735 Z" stroke-miterlimit="10" stroke-dasharray=""/><path fill="#000000" stroke="#ffffff" paint-order="stroke fill markers" d=" M 529.0132137379203 262.04 L 535.0132137379203 262.04 L 535.0132137379203 268.04 L 529.0132137379203 268.04 L 529.0132137379203 262.04 Z" stroke-miterlimit="10" stroke-dasharray=""/><path fill="#000000" stroke="#ffffff" paint-order="stroke fill markers" d=" M 590.0132137379203 260.61 L 596.0132137379203 260.61 L 596.0132137379203 266.61 L 590.0132137379203 266.61 L 590.0132137379203 260.61 Z" stroke-miterlimit="10" stroke-dasharray=""/><path fill="#000000" stroke="#ffffff" paint-order="stroke fill markers" d=" M 651.0132137379203 227.07 L 657.0132137379203 227.07 L 657.0132137379203 233.07 L 651.0132137379203 233.07 L 651.0132137379203 227.07 Z" stroke-miterlimit="10" stroke-dasharray=""/><g><path fill="none" stroke="#ffffff" paint-order="fill stroke markers" d="" stroke-miterlimit="10" stroke-dasharray=""/><path fill="none" stroke="#ff0000" paint-order="fill stroke markers" d=" M 44.01321373792034 276.35" stroke-miterlimit="10" stroke-width="2" stroke-dasharray=""/><path fill="none" stroke="#ff0000" paint-order="fill stroke markers" d=" M 44.01321373792034 276.35 Q 80.61805890508735 276.4201163612947 105.01321373792034 275.999 C 129.41805890508738 275.5777163612947 141.6151666675026 275.0083388188782 166.01321373792035 274.244 C 190.4151666675026 273.4795388188782 202.63649218269654 273.4497845598916 227.01321373792035 272.177 C 251.43649218269655 270.9017845598916 263.79332126512446 270.99677793932034 288.01321373792035 267.874 C 312.5933212651245 264.70477793932037 324.8899979495459 262.18437073209407 349.01321373792035 256.447 C 373.6899979495459 250.57797073209406 386.0037990952245 247.0422584159491 410.01321373792035 238.858 C 434.8037990952245 230.40745841594912 458.11011178670526 235.57455526197612 471.01321373792035 214.86 C 506.9101117867052 157.23135526197612 507.6132137379203 111.744 532.0132137379203 43" stroke-miterlimit="10" stroke-width="2" stroke-dasharray=""/></g><path fill="#ff0000" stroke="#ffffff" paint-order="stroke fill markers" d=" M 41.01321373792034 273.35 L 47.01321373792034 273.35 L 47.01321373792034 279.35 L 41.01321373792034 279.35 L 41.01321373792034 273.35 Z" stroke-miterlimit="10" stroke-dasharray=""/><path fill="#ff0000" stroke="#ffffff" paint-order="stroke fill markers" d=" M 102.01321373792034 272.999 L 108.01321373792034 272.999 L 108.01321373792034 278.999 L 102.01321373792034 278.999 L 102.01321373792034 272.999 Z" stroke-miterlimit="10" stroke-dasharray=""/><path fill="#ff0000" stroke="#ffffff" paint-order="stroke fill markers" d=" M 163.01321373792035 271.244 L 169.01321373792035 271.244 L 169.01321373792035 277.244 L 163.01321373792035 277.244 L 163.01321373792035 271.244 Z" stroke-miterlimit="10" stroke-dasharray=""/><path fill="#ff0000" stroke="#ffffff" paint-order="stroke fill markers" d=" M 224.01321373792035 269.177 L 230.01321373792035 269.177 L 230.01321373792035 275.177 L 224.01321373792035 275.177 L 224.01321373792035 269.177 Z" stroke-miterlimit="10" stroke-dasharray=""/><path fill="#ff0000" stroke="#ffffff" paint-order="stroke fill markers" d=" M 285.01321373792035 264.874 L 291.01321373792035 264.874 L 291.01321373792035 270.874 L 285.01321373792035 270.874 L 285.01321373792035 264.874 Z" stroke-miterlimit="10" stroke-dasharray=""/><path fill="#ff0000" stroke="#ffffff" paint-order="stroke fill markers" d=" M 346.01321373792035 253.447 L 352.01321373792035 253.447 L 352.01321373792035 259.447 L 346.01321373792035 259.447 L 346.01321373792035 253.447 Z" stroke-miterlimit="10" stroke-dasharray=""/><path fill="#ff0000" stroke="#ffffff" paint-order="stroke fill markers" d=" M 407.01321373792035 235.858 L 413.01321373792035 235.858 L 413.01321373792035 241.858 L 407.01321373792035 241.858 L 407.01321373792035 235.858 Z" stroke-miterlimit="10" stroke-dasharray=""/><path fill="#ff0000" stroke="#ffffff" paint-order="stroke fill markers" d=" M 468.01321373792035 211.86 L 474.01321373792035 211.86 L 474.01321373792035 217.86 L 468.01321373792035 217.86 L 468.01321373792035 211.86 Z" stroke-miterlimit="10" stroke-dasharray=""/><path fill="#ff0000" stroke="#ffffff" paint-order="stroke fill markers" d=" M 529.0132137379203 40 L 535.0132137379203 40 L 535.0132137379203 46 L 529.0132137379203 46 L 529.0132137379203 40 Z" stroke-miterlimit="10" stroke-dasharray=""/></g></g></g></svg>